<svg width="20" height="20" viewBox="0 0 20 20" fill="none" xmlns="http://www.w3.org/2000/svg">
<path d="M9.66 18.61C4.88 18.61 1 14.72 1 9.95004C1 5.18004 4.89 1.29004 9.66 1.29004C14.43 1.29004 18.32 5.18004 18.32 9.95004C18.32 14.72 14.43 18.61 9.66 18.61ZM9.66 2.60004C5.61 2.60004 2.31 5.90004 2.31 9.95004C2.31 14 5.61 17.3 9.66 17.3C13.71 17.3 17.01 14 17.01 9.95004C17.01 5.90004 13.71 2.60004 9.66 2.60004Z" fill="#ECEDEF"/>
<path d="M5.93994 9.93999C5.93994 6.95999 7.04995 4.73999 9.61994 4.73999C12.0099 4.73999 12.7899 6.32999 13.1399 7.91999L11.8999 8.25999C11.6999 6.82999 11.2099 5.78999 9.66995 5.78999C7.92995 5.78999 7.19995 7.31999 7.19995 9.93999C7.19995 12.56 7.92995 14.09 9.66995 14.09C11.1699 14.09 11.6799 13.08 11.9599 11.56L13.1899 11.9C12.7999 13.67 11.8899 15.14 9.62995 15.14C7.14995 15.14 5.94995 12.98 5.94995 9.93999H5.93994Z" fill="#ECEDEF"/>
</svg>
