<svg width="20" height="20" viewBox="0 0 20 20" fill="none" xmlns="http://www.w3.org/2000/svg">
<path d="M6.56006 4.64014H12.5601V5.71014H7.76006V8.89014H12.2601V9.96014H7.76006V13.6201H12.7501V14.6901H6.56006V4.64014Z" fill="#ECEDEF"/>
<path d="M9.66001 18.32C4.88001 18.32 1 14.43 1 9.66C1 4.89 4.88001 1 9.66001 1C14.44 1 18.32 4.89 18.32 9.66C18.32 14.43 14.43 18.32 9.66001 18.32ZM9.66001 2.31C5.61001 2.31 2.31 5.61 2.31 9.66C2.31 13.71 5.61001 17.01 9.66001 17.01C13.71 17.01 17.01 13.71 17.01 9.66C17.01 5.61 13.71 2.31 9.66001 2.31Z" fill="#ECEDEF"/>
</svg>
