<svg width="20" height="20" viewBox="0 0 20 20" fill="none" xmlns="http://www.w3.org/2000/svg">
<path d="M9.66 18.61C4.88 18.61 1 14.72 1 9.95004C1 5.18004 4.89 1.29004 9.66 1.29004C14.43 1.29004 18.32 5.18004 18.32 9.95004C18.32 14.72 14.43 18.61 9.66 18.61ZM9.66 2.60004C5.61 2.60004 2.31 5.90004 2.31 9.95004C2.31 14 5.61 17.3 9.66 17.3C13.71 17.3 17.01 14 17.01 9.95004C17.01 5.90004 13.71 2.60004 9.66 2.60004Z" fill="#ECEDEF"/>
<path d="M6.6001 4.64014H7.8001V13.6201H12.7201V14.6901H6.6001V4.64014Z" fill="#ECEDEF"/>
</svg>
