<svg width="20" height="20" viewBox="0 0 20 20" fill="none" xmlns="http://www.w3.org/2000/svg">
<path d="M6.1599 4.62988H8.0999L9.6599 11.0099L11.2199 4.62988H13.1599V14.6699H11.9599V7.73988C11.9599 6.82988 11.9899 5.82988 11.9899 5.67988H11.9799L10.2399 12.6299H9.0699L7.3299 5.66988H7.3199C7.3199 5.82988 7.3499 6.83988 7.3499 7.73988V14.6699H6.1499V4.62988H6.1599Z" fill="#ECEDEF"/>
<path d="M9.66 18.32C4.88 18.32 1 14.43 1 9.66C1 4.89 4.89 1 9.66 1C14.43 1 18.32 4.89 18.32 9.66C18.32 14.43 14.43 18.32 9.66 18.32ZM9.66 2.31C5.61 2.31 2.31 5.61 2.31 9.66C2.31 13.71 5.61 17.01 9.66 17.01C13.71 17.01 17.01 13.71 17.01 9.66C17.01 5.61 13.71 2.31 9.66 2.31Z" fill="#ECEDEF"/>
</svg>
