<svg width="20" height="20" viewBox="0 0 20 20" fill="none" xmlns="http://www.w3.org/2000/svg">
<path d="M5.93994 9.94024C5.93994 6.50024 7.39994 4.74023 9.65994 4.74023C11.9199 4.74023 13.3799 6.49024 13.3799 9.94024C13.3799 13.3902 11.9199 15.1402 9.65994 15.1402C7.39994 15.1402 5.93994 13.5302 5.93994 9.94024ZM12.1299 9.94024C12.1299 7.24024 11.3599 5.79023 9.65994 5.79023C7.95994 5.79023 7.18994 7.24024 7.18994 9.94024C7.18994 12.7902 7.95994 14.0902 9.65994 14.0902C11.3599 14.0902 12.1299 12.7902 12.1299 9.94024Z" fill="#ECEDEF"/>
<path d="M9.66 18.61C4.88 18.61 1 14.72 1 9.95004C1 5.18004 4.89 1.29004 9.66 1.29004C14.43 1.29004 18.32 5.18004 18.32 9.95004C18.32 14.72 14.43 18.61 9.66 18.61ZM9.66 2.60004C5.61 2.60004 2.31 5.90004 2.31 9.95004C2.31 14 5.61 17.3 9.66 17.3C13.71 17.3 17.01 14 17.01 9.95004C17.01 5.90004 13.71 2.60004 9.66 2.60004Z" fill="#ECEDEF"/>
</svg>
