<svg width="20" height="20" viewBox="0 0 20 20" fill="none" xmlns="http://www.w3.org/2000/svg">
<path d="M6.51 4.62988H9.72C11.54 4.62988 12.84 5.50988 12.84 7.44988C12.84 8.93988 11.91 9.86988 10.48 10.1499L13.47 14.6799H12.04L9.16 10.2399H7.7V14.6799H6.5V4.63988L6.51 4.62988ZM9.56 9.16988C10.86 9.16988 11.6 8.56988 11.6 7.44988C11.6 6.32988 10.97 5.69988 9.7 5.69988H7.7V9.16988H9.55H9.56Z" fill="#ECEDEF"/>
<path d="M9.66 18.32C4.88 18.32 1 14.43 1 9.66C1 4.89 4.89 1 9.66 1C14.43 1 18.32 4.89 18.32 9.66C18.32 14.43 14.43 18.32 9.66 18.32ZM9.66 2.31C5.61 2.31 2.31 5.61 2.31 9.66C2.31 13.71 5.61 17.01 9.66 17.01C13.71 17.01 17.01 13.71 17.01 9.66C17.01 5.61 13.71 2.31 9.66 2.31Z" fill="#ECEDEF"/>
</svg>
