<svg width="20" height="20" viewBox="0 0 20 20" fill="none" xmlns="http://www.w3.org/2000/svg">
<path d="M9.05994 6.02996H5.93994V4.95996H13.3799V6.02996H10.2599V15.01H9.05994V6.02996Z" fill="#ECEDEF"/>
<path d="M9.6599 18.32C4.8799 18.32 1 14.43 1 9.66C1 4.89 4.8899 1 9.6599 1C14.4299 1 18.32 4.89 18.32 9.66C18.32 14.43 14.4299 18.32 9.6599 18.32ZM9.6599 2.31C5.6099 2.31 2.31 5.61 2.31 9.66C2.31 13.71 5.6099 17.01 9.6599 17.01C13.7099 17.01 17.01 13.71 17.01 9.66C17.01 5.61 13.7099 2.31 9.6599 2.31Z" fill="#ECEDEF"/>
</svg>
