<svg width="18" height="59" viewBox="0 0 18 59" fill="none" xmlns="http://www.w3.org/2000/svg">
<path d="M5.59998 3.64014H6.79998V12.6201H11.72V13.6901H5.59998V3.64014Z" fill="#ECEDEF"/>
<path d="M8.66 17.32C3.89 17.32 0 13.44 0 8.66C0 3.88 3.89 0 8.66 0C13.43 0 17.32 3.89 17.32 8.66C17.32 13.43 13.43 17.32 8.66 17.32ZM8.66 1.31C4.61 1.31 1.31 4.61 1.31 8.66C1.31 12.71 4.61 16.01 8.66 16.01C12.71 16.01 16.01 12.71 16.01 8.66C16.01 4.61 12.71 1.31 8.66 1.31Z" fill="#ECEDEF"/>
<path d="M4.94 49.9402C4.94 46.5002 6.4 44.7402 8.66 44.7402C10.92 44.7402 12.38 46.4902 12.38 49.9402C12.38 53.3902 10.92 55.1402 8.66 55.1402C6.4 55.1402 4.94 53.5302 4.94 49.9402ZM11.13 49.9402C11.13 47.2402 10.36 45.7902 8.66 45.7902C6.96 45.7902 6.19 47.2402 6.19 49.9402C6.19 52.7902 6.96 54.0902 8.66 54.0902C10.36 54.0902 11.13 52.7902 11.13 49.9402Z" fill="#ECEDEF"/>
<path d="M8.66 58.61C3.88 58.61 0 54.72 0 49.95C0 45.18 3.89 41.29 8.66 41.29C13.43 41.29 17.32 45.18 17.32 49.95C17.32 54.72 13.43 58.61 8.66 58.61ZM8.66 42.6C4.61 42.6 1.31 45.9 1.31 49.95C1.31 54 4.61 57.3 8.66 57.3C12.71 57.3 16.01 54 16.01 49.95C16.01 45.9 12.71 42.6 8.66 42.6Z" fill="#ECEDEF"/>
<path d="M5.51 24.2798H8.72C10.54 24.2798 11.84 25.1598 11.84 27.0998C11.84 28.5898 10.91 29.5198 9.48 29.7998L12.47 34.3298H11.04L8.16 29.8898H6.7V34.3298H5.5V24.2898L5.51 24.2798ZM8.56 28.8198C9.86 28.8198 10.6 28.2198 10.6 27.0998C10.6 25.9798 9.97 25.3498 8.7 25.3498H6.7V28.8198H8.55H8.56Z" fill="#ECEDEF"/>
<path d="M8.66 37.9699C3.88 37.9699 0 34.0799 0 29.3099C0 24.5399 3.89 20.6499 8.66 20.6499C13.43 20.6499 17.32 24.5399 17.32 29.3099C17.32 34.0799 13.43 37.9699 8.66 37.9699ZM8.66 21.9599C4.61 21.9599 1.31 25.2599 1.31 29.3099C1.31 33.3599 4.61 36.6599 8.66 36.6599C12.71 36.6599 16.01 33.3599 16.01 29.3099C16.01 25.2599 12.71 21.9599 8.66 21.9599Z" fill="#ECEDEF"/>
</svg>
