<svg width="36" height="59" viewBox="0 0 36 59" fill="none" xmlns="http://www.w3.org/2000/svg">
<path d="M6.22998 3.64014H12.23V4.71014H7.42998V7.89014H11.93V8.96014H7.42998V12.6201H12.42V13.6901H6.22998V3.64014Z" fill="#ECEDEF"/>
<path d="M9.32999 17.32C4.54999 17.32 0.669983 13.43 0.669983 8.66C0.669983 3.89 4.54999 0 9.32999 0C14.11 0 17.99 3.89 17.99 8.66C17.99 13.43 14.1 17.32 9.32999 17.32ZM9.32999 1.31C5.27999 1.31 1.97998 4.61 1.97998 8.66C1.97998 12.71 5.27999 16.01 9.32999 16.01C13.38 16.01 16.68 12.71 16.68 8.66C16.68 4.61 13.38 1.31 9.32999 1.31Z" fill="#ECEDEF"/>
<path d="M23.15 24.2798H25.09L26.65 30.6598L28.21 24.2798H30.15V34.3198H28.95V27.3898C28.95 26.4798 28.98 25.4798 28.98 25.3298H28.97L27.23 32.2798H26.06L24.32 25.3198H24.31C24.31 25.4798 24.34 26.4898 24.34 27.3898V34.3198H23.14V24.2798H23.15Z" fill="#ECEDEF"/>
<path d="M26.65 37.9699C21.87 37.9699 17.99 34.0799 17.99 29.3099C17.99 24.5399 21.88 20.6499 26.65 20.6499C31.42 20.6499 35.31 24.5399 35.31 29.3099C35.31 34.0799 31.42 37.9699 26.65 37.9699ZM26.65 21.9599C22.6 21.9599 19.3 25.2599 19.3 29.3099C19.3 33.3599 22.6 36.6599 26.65 36.6599C30.7 36.6599 34 33.3599 34 29.3099C34 25.2599 30.7 21.9599 26.65 21.9599Z" fill="#ECEDEF"/>
<path d="M5.60999 49.9402C5.60999 46.5002 7.06999 44.7402 9.32999 44.7402C11.59 44.7402 13.05 46.4902 13.05 49.9402C13.05 53.3902 11.59 55.1402 9.32999 55.1402C7.06999 55.1402 5.60999 53.5302 5.60999 49.9402ZM11.8 49.9402C11.8 47.2402 11.03 45.7902 9.32999 45.7902C7.62999 45.7902 6.85999 47.2402 6.85999 49.9402C6.85999 52.7902 7.62999 54.0902 9.32999 54.0902C11.03 54.0902 11.8 52.7902 11.8 49.9402Z" fill="#ECEDEF"/>
<path d="M9.32999 58.61C4.54999 58.61 0.669983 54.72 0.669983 49.95C0.669983 45.18 4.55999 41.29 9.32999 41.29C14.1 41.29 17.99 45.18 17.99 49.95C17.99 54.72 14.1 58.61 9.32999 58.61ZM9.32999 42.6C5.27999 42.6 1.97998 45.9 1.97998 49.95C1.97998 54 5.27999 57.3 9.32999 57.3C13.38 57.3 16.68 54 16.68 49.95C16.68 45.9 13.38 42.6 9.32999 42.6Z" fill="#ECEDEF"/>
</svg>
