<svg width="35" height="38" viewBox="0 0 35 38" fill="none" xmlns="http://www.w3.org/2000/svg">
<path d="M6.45001 3.64014H12.45V4.71014H7.64999V7.89014H12.15V8.96014H7.64999V12.6201H12.64V13.6901H6.45001V3.64014Z" fill="#ECEDEF"/>
<path d="M9.54001 17.32C4.76001 17.32 0.880005 13.43 0.880005 8.66C0.880005 3.89 4.77001 0 9.54001 0C14.31 0 18.2 3.89 18.2 8.66C18.2 13.43 14.31 17.32 9.54001 17.32ZM9.54001 1.31C5.49001 1.31 2.19 4.61 2.19 8.66C2.19 12.71 5.49001 16.01 9.54001 16.01C13.59 16.01 16.89 12.71 16.89 8.66C16.89 4.61 13.59 1.31 9.54001 1.31Z" fill="#ECEDEF"/>
<path d="M21.82 29.3001C21.82 25.8601 23.28 24.1001 25.54 24.1001C27.8 24.1001 29.26 25.8501 29.26 29.3001C29.26 32.7501 27.8 34.5001 25.54 34.5001C23.28 34.5001 21.82 32.8901 21.82 29.3001ZM28.01 29.3001C28.01 26.6001 27.24 25.1501 25.54 25.1501C23.84 25.1501 23.07 26.6001 23.07 29.3001C23.07 32.1501 23.84 33.4501 25.54 33.4501C27.24 33.4501 28.01 32.1501 28.01 29.3001Z" fill="#ECEDEF"/>
<path d="M25.54 37.9699C20.76 37.9699 16.88 34.0799 16.88 29.3099C16.88 24.5399 20.77 20.6499 25.54 20.6499C30.31 20.6499 34.2 24.5399 34.2 29.3099C34.2 34.0799 30.31 37.9699 25.54 37.9699ZM25.54 21.9599C21.49 21.9599 18.19 25.2599 18.19 29.3099C18.19 33.3599 21.49 36.6599 25.54 36.6599C29.59 36.6599 32.89 33.3599 32.89 29.3099C32.89 25.2599 29.59 21.9599 25.54 21.9599Z" fill="#ECEDEF"/>
</svg>
