<svg width="42" height="18" viewBox="0 0 42 18" fill="none" xmlns="http://www.w3.org/2000/svg">
<path d="M5.89001 8.65996C5.89001 5.67996 7.00002 3.45996 9.57001 3.45996C11.96 3.45996 12.74 5.04996 13.09 6.63996L11.85 6.97996C11.65 5.54996 11.16 4.50996 9.62002 4.50996C7.88002 4.50996 7.15002 6.03996 7.15002 8.65996C7.15002 11.28 7.88002 12.81 9.62002 12.81C11.12 12.81 11.63 11.8 11.91 10.28L13.14 10.62C12.75 12.39 11.84 13.86 9.58002 13.86C7.10002 13.86 5.90002 11.7 5.90002 8.65996H5.89001Z" fill="#ECEDEF"/>
<path d="M9.50998 17.32C4.72998 17.32 0.849976 13.43 0.849976 8.66C0.849976 3.89 4.73998 0 9.50998 0C14.28 0 18.17 3.89 18.17 8.66C18.17 13.43 14.28 17.32 9.50998 17.32ZM9.50998 1.31C5.45998 1.31 2.15998 4.61 2.15998 8.66C2.15998 12.71 5.45998 16.01 9.50998 16.01C13.56 16.01 16.86 12.71 16.86 8.66C16.86 4.61 13.56 1.31 9.50998 1.31Z" fill="#ECEDEF"/>
<path d="M32.32 3.64014H33.87L37.26 13.6801H36.05L35.1 10.8801H31.1L30.15 13.6801H28.94L32.33 3.64014H32.32ZM34.76 9.81014L33.1 4.88014L31.44 9.81014H34.77H34.76Z" fill="#ECEDEF"/>
<path d="M33.1 17.32C28.32 17.32 24.44 13.43 24.44 8.66C24.44 3.89 28.33 0 33.1 0C37.87 0 41.76 3.89 41.76 8.66C41.76 13.43 37.87 17.32 33.1 17.32ZM33.1 1.31C29.05 1.31 25.75 4.61 25.75 8.66C25.75 12.71 29.05 16.01 33.1 16.01C37.15 16.01 40.45 12.71 40.45 8.66C40.45 4.61 37.15 1.31 33.1 1.31Z" fill="#ECEDEF"/>
</svg>
