<svg width="18" height="18" viewBox="0 0 18 18" fill="none" xmlns="http://www.w3.org/2000/svg">
<path d="M6.14001 3.64014H7.34001V12.6201H12.26V13.6901H6.14001V3.64014Z" fill="#ECEDEF"/>
<path d="M9.19003 17.32C4.41003 17.32 0.530029 13.43 0.530029 8.66C0.530029 3.89 4.42003 0 9.19003 0C13.96 0 17.85 3.89 17.85 8.66C17.85 13.43 13.96 17.32 9.19003 17.32ZM9.19003 1.31C5.14003 1.31 1.84003 4.61 1.84003 8.66C1.84003 12.71 5.14003 16.01 9.19003 16.01C13.24 16.01 16.54 12.71 16.54 8.66C16.54 4.61 13.24 1.31 9.19003 1.31Z" fill="#ECEDEF"/>
</svg>
