<svg width="45" height="59" viewBox="0 0 45 59" fill="none" xmlns="http://www.w3.org/2000/svg">
<path d="M35.19 24.2798H36.74L40.13 34.3198H38.92L37.97 31.5198H33.97L33.02 34.3198H31.81L35.2 24.2798H35.19ZM37.63 30.4498L35.97 25.5198L34.31 30.4498H37.64H37.63Z" fill="#ECEDEF"/>
<path d="M35.96 37.9699C31.18 37.9699 27.3 34.0799 27.3 29.3099C27.3 24.5399 31.19 20.6499 35.96 20.6499C40.73 20.6499 44.62 24.5399 44.62 29.3099C44.62 34.0799 40.73 37.9699 35.96 37.9699ZM35.96 21.9599C31.91 21.9599 28.61 25.2599 28.61 29.3099C28.61 33.3599 31.91 36.6599 35.96 36.6599C40.01 36.6599 43.31 33.3599 43.31 29.3099C43.31 25.2599 40.01 21.9599 35.96 21.9599Z" fill="#ECEDEF"/>
<path d="M6.29999 3.64014H12.3V4.71014H7.49998V7.89014H12V8.96014H7.49998V12.6201H12.49V13.6901H6.29999V3.64014Z" fill="#ECEDEF"/>
<path d="M9.39998 17.32C4.61998 17.32 0.73999 13.43 0.73999 8.66C0.73999 3.89 4.62998 0 9.39998 0C14.17 0 18.06 3.89 18.06 8.66C18.06 13.43 14.17 17.32 9.39998 17.32ZM9.39998 1.31C5.34998 1.31 2.04999 4.61 2.04999 8.66C2.04999 12.71 5.34998 16.01 9.39998 16.01C13.45 16.01 16.75 12.71 16.75 8.66C16.75 4.61 13.45 1.31 9.39998 1.31Z" fill="#ECEDEF"/>
<path d="M5.89 24.2798H7.83L9.39 30.6598L10.95 24.2798H12.89V34.3198H11.69V27.3898C11.69 26.4798 11.72 25.4798 11.72 25.3298H11.71L9.97 32.2798H8.8L7.06 25.3198H7.05C7.05 25.4798 7.08 26.4898 7.08 27.3898V34.3198H5.88V24.2798H5.89Z" fill="#ECEDEF"/>
<path d="M9.39998 37.9699C4.61998 37.9699 0.73999 34.0799 0.73999 29.3099C0.73999 24.5399 4.62998 20.6499 9.39998 20.6499C14.17 20.6499 18.06 24.5399 18.06 29.3099C18.06 34.0799 14.17 37.9699 9.39998 37.9699ZM9.39998 21.9599C5.34998 21.9599 2.04999 25.2599 2.04999 29.3099C2.04999 33.3599 5.34998 36.6599 9.39998 36.6599C13.45 36.6599 16.75 33.3599 16.75 29.3099C16.75 25.2599 13.45 21.9599 9.39998 21.9599Z" fill="#ECEDEF"/>
<path d="M5.66998 49.9402C5.66998 46.5002 7.12998 44.7402 9.38998 44.7402C11.65 44.7402 13.11 46.4902 13.11 49.9402C13.11 53.3902 11.65 55.1402 9.38998 55.1402C7.12998 55.1402 5.66998 53.5302 5.66998 49.9402ZM11.86 49.9402C11.86 47.2402 11.09 45.7902 9.38998 45.7902C7.68998 45.7902 6.91998 47.2402 6.91998 49.9402C6.91998 52.7902 7.68998 54.0902 9.38998 54.0902C11.09 54.0902 11.86 52.7902 11.86 49.9402Z" fill="#ECEDEF"/>
<path d="M9.39998 58.61C4.61998 58.61 0.73999 54.72 0.73999 49.95C0.73999 45.18 4.62998 41.29 9.39998 41.29C14.17 41.29 18.06 45.18 18.06 49.95C18.06 54.72 14.17 58.61 9.39998 58.61ZM9.39998 42.6C5.34998 42.6 2.04999 45.9 2.04999 49.95C2.04999 54 5.34998 57.3 9.39998 57.3C13.45 57.3 16.75 54 16.75 49.95C16.75 45.9 13.45 42.6 9.39998 42.6Z" fill="#ECEDEF"/>
</svg>
