<svg width="41" height="59" viewBox="0 0 41 59" fill="none" xmlns="http://www.w3.org/2000/svg">
<path d="M30.6 3.64014H32.15L35.54 13.6801H34.33L33.38 10.8801H29.38L28.43 13.6801H27.22L30.61 3.64014H30.6ZM33.04 9.81014L31.38 4.88014L29.72 9.81014H33.05H33.04Z" fill="#ECEDEF"/>
<path d="M31.37 17.32C26.59 17.32 22.71 13.43 22.71 8.66C22.71 3.89 26.6 0 31.37 0C36.14 0 40.03 3.89 40.03 8.66C40.03 13.43 36.14 17.32 31.37 17.32ZM31.37 1.31C27.32 1.31 24.02 4.61 24.02 8.66C24.02 12.71 27.32 16.01 31.37 16.01C35.42 16.01 38.72 12.71 38.72 8.66C38.72 4.61 35.42 1.31 31.37 1.31Z" fill="#ECEDEF"/>
<path d="M4.95996 8.65996C4.95996 5.21996 6.41996 3.45996 8.67996 3.45996C10.94 3.45996 12.4 5.20996 12.4 8.65996C12.4 12.11 10.94 13.86 8.67996 13.86C6.41996 13.86 4.95996 12.25 4.95996 8.65996ZM11.15 8.65996C11.15 5.95996 10.38 4.50996 8.67996 4.50996C6.97996 4.50996 6.20996 5.95996 6.20996 8.65996C6.20996 11.51 6.97996 12.81 8.67996 12.81C10.38 12.81 11.15 11.51 11.15 8.65996Z" fill="#ECEDEF"/>
<path d="M8.68002 17.32C3.90002 17.32 0.0200195 13.43 0.0200195 8.66C0.0200195 3.89 3.91002 0 8.68002 0C13.45 0 17.34 3.89 17.34 8.66C17.34 13.43 13.45 17.32 8.68002 17.32ZM8.68002 1.31C4.63002 1.31 1.33002 4.61 1.33002 8.66C1.33002 12.71 4.63002 16.01 8.68002 16.01C12.73 16.01 16.03 12.71 16.03 8.66C16.03 4.61 12.73 1.31 8.68002 1.31Z" fill="#ECEDEF"/>
<path d="M5.18002 44.9199H7.12003L8.68002 51.2999L10.24 44.9199H12.18V54.9599H10.98V48.0299C10.98 47.1199 11.01 46.1199 11.01 45.9699H11L9.26004 52.9199H8.09003L6.35004 45.9599H6.34003C6.34003 46.1199 6.37003 47.1299 6.37003 48.0299V54.9599H5.17004V44.9199H5.18002Z" fill="#ECEDEF"/>
<path d="M8.68002 58.61C3.90002 58.61 0.0200195 54.72 0.0200195 49.95C0.0200195 45.18 3.91002 41.29 8.68002 41.29C13.45 41.29 17.34 45.18 17.34 49.95C17.34 54.72 13.45 58.61 8.68002 58.61ZM8.68002 42.6C4.63002 42.6 1.33002 45.9 1.33002 49.95C1.33002 54 4.63002 57.3 8.68002 57.3C12.73 57.3 16.03 54 16.03 49.95C16.03 45.9 12.73 42.6 8.68002 42.6Z" fill="#ECEDEF"/>
</svg>
