<svg width="42" height="59" viewBox="0 0 42 59" fill="none" xmlns="http://www.w3.org/2000/svg">
<path d="M29.39 3.64014H35.39V4.71014H30.59V7.89014H35.09V8.96014H30.59V12.6201H35.58V13.6901H29.39V3.64014Z" fill="#ECEDEF"/>
<path d="M32.48 17.32C27.7 17.32 23.8201 13.43 23.8201 8.66C23.8201 3.89 27.71 0 32.48 0C37.25 0 41.1401 3.89 41.1401 8.66C41.1401 13.43 37.25 17.32 32.48 17.32ZM32.48 1.31C28.43 1.31 25.1301 4.61 25.1301 8.66C25.1301 12.71 28.43 16.01 32.48 16.01C36.53 16.01 39.8301 12.71 39.8301 8.66C39.8301 4.61 36.53 1.31 32.48 1.31Z" fill="#ECEDEF"/>
<path d="M5.25 49.9402C5.25 46.5002 6.71 44.7402 8.97 44.7402C11.23 44.7402 12.69 46.4902 12.69 49.9402C12.69 53.3902 11.23 55.1402 8.97 55.1402C6.71 55.1402 5.25 53.5302 5.25 49.9402ZM11.44 49.9402C11.44 47.2402 10.67 45.7902 8.97 45.7902C7.27 45.7902 6.5 47.2402 6.5 49.9402C6.5 52.7902 7.27 54.0902 8.97 54.0902C10.67 54.0902 11.44 52.7902 11.44 49.9402Z" fill="#ECEDEF"/>
<path d="M8.97006 58.61C4.19006 58.61 0.310059 54.72 0.310059 49.95C0.310059 45.18 4.20006 41.29 8.97006 41.29C13.7401 41.29 17.6301 45.18 17.6301 49.95C17.6301 54.72 13.7401 58.61 8.97006 58.61ZM8.97006 42.6C4.92006 42.6 1.62006 45.9 1.62006 49.95C1.62006 54 4.92006 57.3 8.97006 57.3C13.0201 57.3 16.3201 54 16.3201 49.95C16.3201 45.9 13.0201 42.6 8.97006 42.6Z" fill="#ECEDEF"/>
<path d="M31.88 25.6799H28.76V24.6099H36.2V25.6799H33.08V34.6599H31.88V25.6799Z" fill="#ECEDEF"/>
<path d="M32.48 37.9699C27.7 37.9699 23.8201 34.0799 23.8201 29.3099C23.8201 24.5399 27.71 20.6499 32.48 20.6499C37.25 20.6499 41.1401 24.5399 41.1401 29.3099C41.1401 34.0799 37.25 37.9699 32.48 37.9699ZM32.48 21.9599C28.43 21.9599 25.1301 25.2599 25.1301 29.3099C25.1301 33.3599 28.43 36.6599 32.48 36.6599C36.53 36.6599 39.8301 33.3599 39.8301 29.3099C39.8301 25.2599 36.53 21.9599 32.48 21.9599Z" fill="#ECEDEF"/>
<path d="M5.88 24.2798H11.88V25.3498H7.07999V28.5298H11.58V29.5998H7.07999V33.2598H12.07V34.3298H5.88V24.2898V24.2798Z" fill="#ECEDEF"/>
<path d="M8.97006 37.9699C4.19006 37.9699 0.310059 34.0799 0.310059 29.3099C0.310059 24.5399 4.20006 20.6499 8.97006 20.6499C13.7401 20.6499 17.6301 24.5399 17.6301 29.3099C17.6301 34.0799 13.7401 37.9699 8.97006 37.9699ZM8.97006 21.9599C4.92006 21.9599 1.62006 25.2599 1.62006 29.3099C1.62006 33.3599 4.92006 36.6599 8.97006 36.6599C13.0201 36.6599 16.3201 33.3599 16.3201 29.3099C16.3201 25.2599 13.0201 21.9599 8.97006 21.9599Z" fill="#ECEDEF"/>
</svg>
